<svg xmlns="http://www.w3.org/2000/svg" version="1.1" xmlns:xlink="http://www.w3.org/1999/xlink" xmlns:svgjs="http://svgjs.dev/svgjs" width="100%" height="100%" viewBox="0 0 1000 600"><rect width="1000" height="600" x="0" y="0" fill="#FFF75"/><g><rect width="333.3333333333333" height="333.3333333333333" rx="13.333333333333334" ry="13.333333333333334" y="197.33156080074235" fill="#" transform="matrix(0.713839813369927,0,0,0.713839813369927,0,40.163582154516604)" x="175.10935974121094"/><path d="M209.92849392881803 292.2605172840432L232.47371052991173 363.9013345064298L254.79282897024947 292.2605172840432L272.7191831444716 292.2605172840432Q277.370345308594 326.2075411346871 279.3406292808959 361.80185158512444Q281.3109132531978 397.3961620355619 282.9581998529912 436.22044621108415L282.9581998529912 436.22044621108415L264.35355119650126 436.22044621108415Q264.09515329849444 423.65584842050333 263.8690551377385 409.02406744586796Q263.64295697698253 394.3599867339819 263.28765986722317 378.7915133790719Q262.9323627574638 363.1907402869111 262.6093653849553 347.13777087323837Q262.25406827519595 331.11710119681646 261.7695722164332 316.0008241634184L261.7695722164332 316.0008241634184L240.839342477882 381.56929078264506L224.1080785819414 381.56929078264506L202.72565252187835 316.0008241634184Q202.46725462387155 331.11710119681646 202.14425725136306 347.0408716614858Q201.7889601416037 362.96464212615507 201.43366303184433 378.6623144300684Q201.07836592208497 394.3599867339819 200.7230688123256 409.02406744586796Q200.4000714398171 423.65584842050333 200.14167354181032 436.22044621108415L200.14167354181032 436.22044621108415L181.5370248853204 436.22044621108415Q182.2476191048391 418.5524899348689 183.18431148511377 399.94784127837903Q184.12100386538842 381.34319262188905 185.3806936181716 362.96464212615507Q186.67268310820563 344.5860916304211 188.41686891975155 326.69203719344995Q190.1610547312975 308.7656830192278 192.26053765260278 292.2605172840432L192.26053765260278 292.2605172840432L209.92849392881803 292.2605172840432ZM350.62614939352306 325.7553448131752L350.62614939352306 325.7553448131752Q372.49307151234893 325.7553448131752 384.34707508341114 339.3535341957833Q396.20107865447324 352.9517235783914 396.20107865447324 380.6325984023703L396.20107865447324 380.6325984023703L396.20107865447324 387.3832434877981L319.00470662494035 387.3832434877981Q320.167497165971 404.1145073837387 330.0512167647313 412.8354364414684Q339.9349363634916 421.55636549919797 357.82899080046275 421.55636549919797L357.82899080046275 421.55636549919797Q368.0680075089824 421.55636549919797 375.27084891592204 419.94137863665554Q382.4736903228618 418.326391774113 386.1881601067096 416.45300701356365L386.1881601067096 416.45300701356365L388.7721390867776 432.73207458799226Q385.2837674636857 434.6054593485416 376.2075412961967 436.67264253259606Q367.13131512870774 438.7721254539014 355.7295078791575 438.7721254539014L355.7295078791575 438.7721254539014Q341.77602138679003 438.7721254539014 331.2140073057619 434.47626039953826Q320.6196934874829 430.1803953451751 313.6429502412992 422.7191560402286Q306.66620699511543 415.290216472533 303.17783537202365 404.9543005522608Q299.68946374893176 394.5860848947378 299.68946374893176 382.5059831629197L299.68946374893176 382.5059831629197Q299.68946374893176 368.0680006117895 304.1145277522983 357.3767875817579Q308.5395917556648 346.68557455172646 315.74243316260447 339.7088313055427Q322.94527456954415 332.732088059359 332.0215007370332 329.2437164362671Q341.0977269045222 325.7553448131752 350.62614939352306 325.7553448131752ZM319.45690294645226 371.8147701328881L376.65973761770863 371.8147701328881Q376.65973761770863 358.08738180127665 369.45689621076895 350.0447472258149Q362.2540548038293 342.03441238760394 350.4000512327671 342.03441238760394L350.4000512327671 342.03441238760394Q343.6494061473394 342.03441238760394 338.1907505519456 344.5860916304211Q332.699795219301 347.13777087323837 328.75922727469725 351.3367367158489Q324.8186593300935 355.5357025584595 322.49307824803225 360.8651592048498Q320.167497165971 366.22691558849095 319.45690294645226 371.8147701328881L319.45690294645226 371.8147701328881ZM466.19460927706643 387.1571453270422L449.6894435418817 387.1571453270422L449.4633453811258 382.7320813236757Q449.4633453811258 372.719162775912 454.5667038667601 365.4194221572197Q459.7023620896455 358.08738180127665 465.83931216730696 351.7889330373608Q472.0085619822195 345.52278401069583 477.1442202051047 339.25663498403077Q482.24757869073915 332.9581862201149 482.24757869073915 324.8186524329006L482.24757869073915 324.8186524329006Q482.24757869073915 316.0008241634184 476.659724146342 310.6390677797772Q471.07186960194485 305.27731139613604 460.1545584111574 305.27731139613604L460.1545584111574 305.27731139613604Q453.4039133257296 305.27731139613604 446.7824671893052 306.9245979959294Q440.16102105288087 308.5395848584719 433.4103759674531 312.2540546423197L433.4103759674531 312.2540546423197L428.0486195838119 297.39617550692844Q435.02536282999563 293.42330782507383 443.87549083672866 291.22692569201604Q452.7256188434617 288.9982438217073 462.70623765397454 288.9982438217073L462.70623765397454 288.9982438217073Q474.56024122503663 288.9982438217073 482.1183797417357 292.2605172840432Q489.6765182584347 295.5227907463791 494.10158226180124 300.529250020261Q498.52664626516776 305.5357092941428 500.27083207671376 311.57576016005186Q502.01501788825965 317.6158110259609 502.01501788825965 323.20366557035805L502.01501788825965 323.20366557035805Q502.01501788825965 330.1804088165417 499.334139696439 335.6390644119355Q496.6532615046185 341.0977200073293 492.7126935600147 345.97498033220774Q488.7721256154109 350.88454039433697 484.1209634512885 355.27730466045267Q479.469801287166 359.7023686638192 475.49693360531137 364.48272977694506Q471.55636566070757 369.23079115282013 468.87548746888706 374.8186456972173Q466.19460927706643 380.4065002416144 466.19460927706643 387.1571453270422L466.19460927706643 387.1571453270422ZM459.7023620896455 438.9982236146573L459.7023620896455 438.9982236146573Q453.1778151649736 438.9982236146573 448.65585194985454 434.70235856029416Q444.10158899748455 430.4064935059311 444.10158899748455 423.2036520989914L444.10158899748455 423.2036520989914Q444.10158899748455 416.00081069205174 448.65585194985454 411.6726459004378Q453.1778151649736 407.3767808460746 459.7023620896455 407.3767808460746L459.7023620896455 407.3767808460746Q465.9685111163104 407.3767808460746 470.61967328043295 411.6726459004378Q475.27083544455536 416.00081069205174 475.27083544455536 423.2036520989914L475.27083544455536 423.2036520989914Q475.27083544455536 430.4064935059311 470.61967328043295 434.70235856029416Q465.9685111163104 438.9982236146573 459.7023620896455 438.9982236146573Z " fill="#FFF7" transform="matrix(0.713839813369927,0,0,0.713839813369927,0,40.163582154516604)"/><path d="M653.0190841060644 394.2426834870725L653.0190841060644 350.4233384893287L668.3623562417729 350.4233384893287L668.3623562417729 404.72291852214113Q664.7995964407694 406.0231958217775 656.9459215509661 407.9996173172247Q649.06624111517 409.9760388126719 638.4039672581523 409.9760388126719L638.4039672581523 409.9760388126719Q627.9237322230836 409.9760388126719 619.3158964994911 405.9451791837993Q610.682055229906 401.91431955492675 604.5967574676081 394.2426834870725Q598.5114597053101 386.57104741921825 595.1567442722485 375.2326293663895Q591.776023293194 363.8942113135609 591.776023293194 349.48713883359056L591.776023293194 349.48713883359056Q591.776023293194 334.8720219856784 595.5208219161466 323.6376261168206Q599.2656205390992 312.4032302479629 605.741001491288 304.7315941801086Q612.1903768974842 297.0599581122543 620.7982126210766 293.02909848338174Q629.406048344669 288.99823885450917 639.3401669138905 288.99823885450917L639.3401669138905 288.99823885450917Q645.7115256821083 288.99823885450917 650.5745627827482 289.93443851024733Q655.437599883388 290.8706381659855 658.8963375004206 292.19692101161456Q662.3810806634459 293.4971983112508 664.6175576188203 294.9014977948581Q666.8540345741949 296.3057972784653 667.9982785978748 297.0599581122543L667.9982785978748 297.0599581122543L662.9271971292932 309.98471447063935Q658.6362820404934 306.6039934915849 652.7330231001445 304.44553317418865Q646.8297641597956 302.3130784027851 640.2763665696286 302.3130784027851L640.2763665696286 302.3130784027851Q633.1508469676215 302.3130784027851 627.0655492053236 305.66779383584674Q620.9802514430257 309.0485148149012 616.6893363542258 315.21182921517726Q612.3724157194333 321.4011491614462 609.9538999421097 330.1130070690095Q607.5093786187934 338.82486497657277 607.5093786187934 349.48713883359056L607.5093786187934 349.48713883359056Q607.5093786187934 359.9673738686592 609.6678389361897 368.5752095922516Q611.8262992535861 377.2090508618367 615.9351755204368 383.37236526211285Q620.0440517872876 389.5616852083818 626.1293495495854 393.0204228254143Q632.2146473118835 396.4791604424469 640.0943277476795 396.4791604424469L640.0943277476795 396.4791604424469Q645.5294868601593 396.4791604424469 648.5201246493227 395.7249996086578Q651.5107624384864 394.9968443208615 653.0190841060644 394.2426834870725L653.0190841060644 394.2426834870725ZM762.9185214713258 364.10225568150275L762.9185214713258 364.10225568150275Q762.9185214713258 374.40045189462234 760.0059003201404 382.7222266122947Q757.1192847149478 391.0440013299671 751.8661644244171 397.0512824542869Q746.6390496798791 403.03255803261396 739.331491255923 406.3092568276974Q732.0239328319669 409.585955622781 723.4160971083745 409.585955622781L723.4160971083745 409.585955622781Q714.9903002067311 409.585955622781 707.786763966746 406.3092568276974Q700.5572221807681 403.03255803261396 695.3301074362302 397.0512824542869Q690.0769871456994 391.0440013299671 687.1903715405068 382.7222266122947Q684.2777503893215 374.40045189462234 684.2777503893215 364.10225568150275L684.2777503893215 364.10225568150275Q684.2777503893215 353.80405946838306 687.1903715405068 345.3782625667398Q690.0769871456994 336.95246566509644 695.3301074362302 331.04920672474765Q700.5572221807681 325.14594778439874 707.786763966746 321.8692489893153Q714.9903002067311 318.5925501942317 723.4160971083745 318.5925501942317L723.4160971083745 318.5925501942317Q732.0239328319669 318.5925501942317 739.331491255923 321.8692489893153Q746.6390496798791 325.14594778439874 751.8661644244171 331.04920672474765Q757.1192847149478 336.95246566509644 760.0059003201404 345.3782625667398Q762.9185214713258 353.80405946838306 762.9185214713258 364.10225568150275ZM747.0031273237772 364.10225568150275L747.0031273237772 364.10225568150275Q747.0031273237772 349.3051000116414 740.6317685555593 340.7752809260273Q734.2604097873414 332.27146738640573 723.4160971083745 332.27146738640573L723.4160971083745 332.27146738640573Q712.727817705364 332.27146738640573 706.4604811211169 340.7752809260273Q700.1931445368699 349.3051000116414 700.1931445368699 364.10225568150275L700.1931445368699 364.10225568150275Q700.1931445368699 378.69136698342214 706.4604811211169 387.2211860690364Q712.727817705364 395.7249996086578 723.4160971083745 395.7249996086578L723.4160971083745 395.7249996086578Q734.2604097873414 395.7249996086578 740.6317685555593 387.2211860690364Q747.0031273237772 378.69136698342214 747.0031273237772 364.10225568150275ZM783.696952719514 407.5315174893556L783.696952719514 323.09150965097336Q792.1227496211574 321.037071517548 800.4705298848224 319.892827493868Q808.7923046024949 318.77458901618076 816.099863026451 318.77458901618076L816.099863026451 318.77458901618076Q833.4975732955849 318.77458901618076 842.3914700250973 327.7725079296641Q851.2853667546096 336.7444212971547 851.2853667546096 356.61265843559755L851.2853667546096 356.61265843559755L851.2853667546096 407.5315174893556L835.9420946189011 407.5315174893556L835.9420946189011 359.42125740281193Q835.9420946189011 350.9954605011687 834.433772951323 345.7423402106379Q832.9514568297376 340.48921992010725 830.2208745005014 337.6026043149146Q827.5162977172578 334.6899831637293 823.6674769103344 333.571744686042Q819.8446616494036 332.4535062083548 815.345702192662 332.4535062083548L815.345702192662 332.4535062083548Q811.6009035697093 332.4535062083548 807.3880051188877 332.92160603622386Q803.1751066680661 333.38970586409295 799.2482692231644 334.14386669788206L799.2482692231644 334.14386669788206L799.2482692231644 407.5315174893556L783.696952719514 407.5315174893556ZM928.8078993589268 402.4864415667667L928.8078993589268 399.46979823161047Q926.1813392136614 400.9781198991886 920.7721856471742 402.66848038871575Q915.3370265346945 404.35884087824303 908.2115069326875 404.35884087824303L908.2115069326875 404.35884087824303Q900.5398708648332 404.35884087824303 893.8824510906953 401.81029737095577Q887.2510368625501 399.2877594096614 882.2839775779394 394.1386613031015Q877.3169182933286 388.9895631965417 874.4303026881361 381.03186612276755Q871.5176815369507 373.07416904899327 871.5176815369507 362.2298563700264L871.5176815369507 362.2298563700264Q871.5176815369507 352.65981544470316 874.2222583201942 344.7021183709289Q876.9528406494305 336.7444212971547 882.1019387559903 330.94518454077667Q887.2510368625501 325.14594778439874 894.7406341084552 321.8692489893153Q902.2302313543605 318.5925501942317 911.774266733691 318.5925501942317L911.774266733691 318.5925501942317Q923.0086626025488 318.5925501942317 930.966359676323 320.178888499788Q938.9240567500973 321.7652268053443 944.359215862577 323.2735484729224L944.359215862577 323.2735484729224L944.359215862577 400.7960810772394Q944.359215862577 421.0023903135878 934.1390362874356 430.0003092270711Q923.9448622582868 438.99822814055443 903.3484698320476 438.99822814055443L903.3484698320476 438.99822814055443Q894.9226729304044 438.99822814055443 888.0832143343173 437.67194529492537Q881.2437557382303 436.371667995289 876.0166409936924 434.4992686838128L876.0166409936924 434.4992686838128L878.8252399609069 420.82035149163875Q883.6882770615466 422.8747896250641 889.9556136457936 424.2010724706931Q896.2229502300406 425.50134977032945 903.7125474759459 425.50134977032945L903.7125474759459 425.50134977032945Q917.2094258461707 425.50134977032945 923.0086626025488 420.06619065784963Q928.8078993589268 414.6570370913626 928.8078993589268 402.4864415667667L928.8078993589268 402.4864415667667ZM928.8078993589268 385.06272575164013L928.8078993589268 334.3259055198311Q926.5714224035523 333.571744686042 922.6445849586505 332.92160603622386Q918.6917419677561 332.27146738640573 911.95630555564 332.27146738640573L911.95630555564 332.27146738640573Q899.9677488529933 332.27146738640573 893.7004122687463 340.48921992010725Q887.4330756844992 348.73297799980145 887.4330756844992 362.4118951919755L887.4330756844992 362.4118951919755Q887.4330756844992 369.9014924378807 889.2014528120046 375.2326293663895Q890.9958354855028 380.56376629489847 894.0904954586372 384.022503911931Q897.1591498857788 387.5072470749564 901.1119928766732 389.0935853805126Q905.0388303215749 390.679923686069 909.5377897783164 390.679923686069L909.5377897783164 390.679923686069Q915.3370265346945 390.679923686069 920.4861246412543 388.9895631965417Q925.6352227478142 387.29920270701456 928.8078993589268 385.06272575164013L928.8078993589268 385.06272575164013ZM1005.3942323075057 396.4791604424469L1005.3942323075057 396.4791604424469Q1011.1934690638836 396.4791604424469 1015.7964507045962 396.1150827985487Q1020.3734267993159 395.7249996086578 1023.3640645884796 395.17888314281066L1023.3640645884796 395.17888314281066L1023.3640645884796 369.3293704260407Q1020.3734267993159 368.39317077030256 1016.1605283484944 367.8470543044553Q1011.9476298976726 367.27493229261535 1007.2666316189819 367.27493229261535L1007.2666316189819 367.27493229261535Q1002.9497109841893 367.27493229261535 998.8408347173386 367.9250709424335Q994.7319584504878 368.5752095922516 991.5332762933825 370.2655700817788Q988.3605996822699 371.95593057130606 986.3061615488446 374.66050735454957Q984.2257178694265 377.39108968378576 984.2257178694265 381.49996595063664L984.2257178694265 381.49996595063664Q984.2257178694265 389.9257628522799 989.9469379878262 393.20246164736346Q995.668158106226 396.4791604424469 1005.3942323075057 396.4791604424469ZM1003.8859106399275 318.5925501942317L1003.8859106399275 318.5925501942317Q1013.6379903871998 318.5925501942317 1020.2694046153451 321.037071517548Q1026.926824389483 323.4555872948716 1031.0357006563338 327.7725079296641Q1035.1705824691771 332.0634230184639 1036.8609429587045 338.2527429647328Q1038.525297902239 344.44206291100164 1038.525297902239 351.723615788965L1038.525297902239 351.723615788965L1038.525297902239 406.0231958217775Q1033.1161443357519 406.95939547751567 1024.2222476062393 408.2856783231446Q1015.328350876727 409.585955622781 1005.9663543193456 409.585955622781L1005.9663543193456 409.585955622781Q998.8408347173386 409.585955622781 992.1053983052225 408.3636949611228Q985.3699618931064 407.1674398454574 980.1168416025756 404.072779872323Q974.863721312045 400.9781198991886 971.6910447009324 395.54296078670876Q968.5183680898198 390.10780167422894 968.5183680898198 381.6820047725857L968.5183680898198 381.6820047725857Q968.5183680898198 374.1924075266805 971.7950668849032 369.0433094201207Q975.0717656799867 363.8942113135609 980.2208637865466 360.7215347024483Q985.3699618931064 357.5488580913357 992.0013761212516 356.14455860772847Q998.6587958953896 354.7402591241212 1005.3942323075057 354.7402591241212L1005.3942323075057 354.7402591241212Q1014.574190042938 354.7402591241212 1023.3640645884796 356.7946972575466L1023.3640645884796 356.7946972575466L1023.3640645884796 352.4777766227541Q1023.3640645884796 348.5509391778524 1022.5318871167121 344.9101627388707Q1021.6737040989523 341.24338075389636 1019.333204959607 338.2527429647328Q1016.9927058202616 335.2621051755693 1012.9878517373817 333.4677225020711Q1008.9569921085091 331.6993453745658 1002.5856333402912 331.6993453745658L1002.5856333402912 331.6993453745658Q994.5239140825461 331.6993453745658 988.542638504219 332.817583852253Q982.5613629258919 333.9358223299402 979.3626807687866 335.0800663536202L979.3626807687866 335.0800663536202L977.4902814573103 322.33734881718425Q980.6889636144157 320.82902714960613 988.0745386763499 319.7107886719189Q995.4601137382842 318.5925501942317 1003.8859106399275 318.5925501942317ZM1116.047830506556 402.4864415667667L1116.047830506556 399.46979823161047Q1113.4212703612907 400.9781198991886 1108.0121167948037 402.66848038871575Q1102.5769576823236 404.35884087824303 1095.4514380803166 404.35884087824303L1095.4514380803166 404.35884087824303Q1087.7798020124624 404.35884087824303 1081.1223822383245 401.81029737095577Q1074.4909680101794 399.2877594096614 1069.5239087255686 394.1386613031015Q1064.5568494409579 388.9895631965417 1061.6702338357654 381.03186612276755Q1058.75761268458 373.07416904899327 1058.75761268458 362.2298563700264L1058.75761268458 362.2298563700264Q1058.75761268458 352.65981544470316 1061.4621894678235 344.7021183709289Q1064.1927717970598 336.7444212971547 1069.3418699036197 330.94518454077667Q1074.4909680101794 325.14594778439874 1081.9805652560844 321.8692489893153Q1089.4701625019898 318.5925501942317 1099.0141978813203 318.5925501942317L1099.0141978813203 318.5925501942317Q1110.2485937501779 318.5925501942317 1118.2062908239523 320.178888499788Q1126.1639878977267 321.7652268053443 1131.5991470102063 323.2735484729224L1131.5991470102063 323.2735484729224L1131.5991470102063 400.7960810772394Q1131.5991470102063 421.0023903135878 1121.3789674350649 430.0003092270711Q1111.184793405916 438.99822814055443 1090.5884009796769 438.99822814055443L1090.5884009796769 438.99822814055443Q1082.1626040780336 438.99822814055443 1075.3231454819465 437.67194529492537Q1068.4836868858597 436.371667995289 1063.2565721413216 434.4992686838128L1063.2565721413216 434.4992686838128L1066.065171108536 420.82035149163875Q1070.9282082091759 422.8747896250641 1077.1955447934229 424.2010724706931Q1083.4628813776699 425.50134977032945 1090.9524786235752 425.50134977032945L1090.9524786235752 425.50134977032945Q1104.4493569938 425.50134977032945 1110.2485937501779 420.06619065784963Q1116.047830506556 414.6570370913626 1116.047830506556 402.4864415667667L1116.047830506556 402.4864415667667ZM1116.047830506556 385.06272575164013L1116.047830506556 334.3259055198311Q1113.8113535511816 333.571744686042 1109.8845161062798 332.92160603622386Q1105.9316731153854 332.27146738640573 1099.1962367032693 332.27146738640573L1099.1962367032693 332.27146738640573Q1087.2076800006225 332.27146738640573 1080.9403434163755 340.48921992010725Q1074.6730068321285 348.73297799980145 1074.6730068321285 362.4118951919755L1074.6730068321285 362.4118951919755Q1074.6730068321285 369.9014924378807 1076.4413839596339 375.2326293663895Q1078.235766633132 380.56376629489847 1081.3304266062664 384.022503911931Q1084.399081033408 387.5072470749564 1088.3519240243024 389.0935853805126Q1092.2787614692043 390.679923686069 1096.7777209259457 390.679923686069L1096.7777209259457 390.679923686069Q1102.5769576823236 390.679923686069 1107.7260557888835 388.9895631965417Q1112.8751538954434 387.29920270701456 1116.047830506556 385.06272575164013L1116.047830506556 385.06272575164013ZM1192.634163455135 396.4791604424469L1192.634163455135 396.4791604424469Q1198.433400211513 396.4791604424469 1203.0363818522255 396.1150827985487Q1207.6133579469451 395.7249996086578 1210.6039957361086 395.17888314281066L1210.6039957361086 395.17888314281066L1210.6039957361086 369.3293704260407Q1207.6133579469451 368.39317077030256 1203.4004594961236 367.8470543044553Q1199.187561045302 367.27493229261535 1194.5065627666113 367.27493229261535L1194.5065627666113 367.27493229261535Q1190.1896421318186 367.27493229261535 1186.0807658649678 367.9250709424335Q1181.971889598117 368.5752095922516 1178.773207441012 370.2655700817788Q1175.600530829899 371.95593057130606 1173.5460926964738 374.66050735454957Q1171.4656490170555 377.39108968378576 1171.4656490170555 381.49996595063664L1171.4656490170555 381.49996595063664Q1171.4656490170555 389.9257628522799 1177.1868691354553 393.20246164736346Q1182.9080892538552 396.4791604424469 1192.634163455135 396.4791604424469ZM1191.1258417875567 318.5925501942317L1191.1258417875567 318.5925501942317Q1200.877921534829 318.5925501942317 1207.5093357629744 321.037071517548Q1214.1667555371123 323.4555872948716 1218.275631803963 327.7725079296641Q1222.4105136168064 332.0634230184639 1224.1008741063338 338.2527429647328Q1225.7652290498681 344.44206291100164 1225.7652290498681 351.723615788965L1225.7652290498681 351.723615788965L1225.7652290498681 406.0231958217775Q1220.3560754833811 406.95939547751567 1211.4621787538686 408.2856783231446Q1202.5682820243564 409.585955622781 1193.2062854669748 409.585955622781L1193.2062854669748 409.585955622781Q1186.0807658649678 409.585955622781 1179.3453294528517 408.3636949611228Q1172.6098930407356 407.1674398454574 1167.356772750205 404.072779872323Q1162.1036524596743 400.9781198991886 1158.9309758485615 395.54296078670876Q1155.7582992374491 390.10780167422894 1155.7582992374491 381.6820047725857L1155.7582992374491 381.6820047725857Q1155.7582992374491 374.1924075266805 1159.0349980325327 369.0433094201207Q1162.3116968276158 363.8942113135609 1167.4607949341757 360.7215347024483Q1172.6098930407356 357.5488580913357 1179.241307268881 356.14455860772847Q1185.8987270430189 354.7402591241212 1192.634163455135 354.7402591241212L1192.634163455135 354.7402591241212Q1201.8141211905672 354.7402591241212 1210.6039957361086 356.7946972575466L1210.6039957361086 356.7946972575466L1210.6039957361086 352.4777766227541Q1210.6039957361086 348.5509391778524 1209.7718182643414 344.9101627388707Q1208.9136352465816 341.24338075389636 1206.5731361072362 338.2527429647328Q1204.2326369678908 335.2621051755693 1200.227782885011 333.4677225020711Q1196.1969232561382 331.6993453745658 1189.8255644879205 331.6993453745658L1189.8255644879205 331.6993453745658Q1181.7638452301753 331.6993453745658 1175.7825696518482 332.817583852253Q1169.8012940735211 333.9358223299402 1166.6026119164158 335.0800663536202L1166.6026119164158 335.0800663536202L1164.7302126049394 322.33734881718425Q1167.9288947620448 320.82902714960613 1175.3144698239792 319.7107886719189Q1182.7000448859135 318.5925501942317 1191.1258417875567 318.5925501942317Z " fill="#ffff" transform="matrix(0.713839813369927,0,0,0.713839813369927,0,40.163582154516604)"/></g></svg>